# xmcd
# Track frame offsets:
# 150
# 6407
# 21822
# 59662
# 103390
# 140602
# 185607
#
# Disc length: 2875 seconds
# Revision: 0
# Processed by: cddbd v1.5.1PL0 Copyright (c) Steve Scherf et al.
# Submitted via: VisiTrax 2.9.10.228 - For more info visit www.synapsa.com
#
DISCID=670b3907
DTITLE=The O'Jays - Live In London
DYEAR=1974
DGENRE=Soul
TTITLE0=Introducing the O'Jays
TTITLE1=Put Your Hands Together
TTITLE2=When The World's At Peace
TTITLE3=Wildflower
TTITLE4=Back Stabbers
TTITLE5=Sunshine
TTITLE6=Love Train
EXTD=
EXTT0=
EXTT1=
EXTT2=
EXTT3=
EXTT4=
EXTT5=
EXTT6=
PLAYORDER=
